<?xml version="1.0" standalone="no"?>
<!DOCTYPE svg PUBLIC "-//W3C//DTD SVG 20010904//EN"
 "http://www.w3.org/TR/2001/REC-SVG-20010904/DTD/svg10.dtd">
<svg version="1.0" xmlns="http://www.w3.org/2000/svg"
 width="269.000000pt" height="269.000000pt" viewBox="0 0 269.000000 269.000000"
 preserveAspectRatio="xMidYMid meet">
<metadata>
Created by potrace 1.14, written by Peter Selinger 2001-2017
</metadata>
<g transform="translate(0.000000,269.000000) scale(0.100000,-0.100000)"
fill="#000000" stroke="none">
<path d="M1275 2555 c-7 -63 -8 -65 -36 -65 -26 0 -29 -3 -29 -35 l0 -35 -65
0 -65 0 0 -29 c0 -29 -1 -29 -70 -36 -69 -7 -70 -8 -70 -36 l0 -28 -97 -3 -98
-3 -3 -32 -3 -33 -65 0 -64 0 0 35 0 36 -62 -3 -63 -3 -3 -67 -3 -68 30 0 c26
0 30 -4 33 -32 3 -29 7 -33 36 -36 28 -3 32 -7 32 -33 l0 -29 70 0 70 0 0
-154 c0 -84 -3 -174 -6 -200 -6 -43 -9 -46 -35 -46 -26 0 -29 -3 -29 -35 0
-33 -2 -35 -35 -35 -33 0 -35 -2 -35 -35 l0 -36 -97 3 -98 3 -3 33 -3 32 -58
0 -58 0 -7 -60 c-8 -71 -4 -80 35 -80 27 0 29 -3 29 -35 0 -32 2 -35 30 -35
27 0 30 -3 30 -30 l0 -30 70 0 70 0 0 -200 0 -200 -35 0 c-33 0 -35 -2 -35
-35 0 -33 -2 -35 -35 -35 -32 0 -35 -3 -35 -29 0 -26 -3 -29 -46 -35 -26 -3
-69 -6 -95 -6 l-49 0 0 35 0 35 -65 0 -65 0 0 -70 0 -70 30 0 c27 0 30 -3 30
-29 0 -26 4 -30 32 -33 29 -3 33 -7 36 -35 l3 -33 65 0 64 0 0 -235 0 -235
990 0 990 0 0 235 0 235 65 0 65 0 0 35 c0 33 2 35 35 35 32 0 35 2 35 30 0
27 3 30 30 30 l30 0 0 70 0 70 -65 0 -65 0 0 -35 0 -35 -49 0 c-26 0 -69 3
-95 6 -43 6 -46 9 -46 35 0 26 -3 29 -35 29 -33 0 -35 2 -35 35 0 33 -2 35
-35 35 l-35 0 0 200 0 200 70 0 70 0 0 30 c0 27 3 30 30 30 28 0 30 3 30 35 0
32 2 35 29 35 39 0 43 9 35 80 l-7 60 -58 0 -58 0 -3 -32 -3 -33 -97 -3 -98
-3 0 36 c0 33 -2 35 -35 35 -33 0 -35 2 -35 35 0 32 -3 35 -29 35 -26 0 -29 3
-35 46 -3 26 -6 116 -6 200 l0 154 70 0 70 0 0 30 c0 27 3 30 30 30 28 0 30 3
30 35 0 33 2 35 35 35 l36 0 -3 68 -3 67 -62 3 -63 3 0 -36 0 -35 -64 0 -65 0
-3 33 -3 32 -97 3 -98 3 0 28 c0 28 -1 29 -70 36 -69 7 -70 7 -70 36 l0 29
-65 0 -65 0 0 35 c0 32 -3 35 -29 35 -28 0 -29 2 -36 65 l-7 65 -58 0 -58 0
-7 -65z m127 -167 c3 -33 3 -33 65 -36 62 -3 62 -3 65 -35 l3 -32 68 -3 c67
-3 67 -3 67 -32 l0 -30 94 0 95 0 3 -32 3 -33 68 -3 c67 -3 67 -3 67 -32 l0
-30 -660 0 -660 0 0 30 0 30 65 0 65 0 0 35 0 35 100 0 100 0 0 30 c0 29 0 29
68 32 l67 3 3 32 c3 32 3 32 65 35 62 3 62 3 65 36 l3 32 59 0 59 0 3 -32z
m468 -538 l0 -170 -530 0 -530 0 0 170 0 170 530 0 530 0 0 -170z m0 -270 c0
-27 3 -30 30 -30 28 0 30 -3 30 -35 0 -33 2 -35 35 -35 32 0 35 -3 35 -29 0
-26 3 -29 46 -35 26 -3 69 -6 95 -6 48 0 49 -1 49 -30 l0 -30 -855 0 -855 0 0
30 c0 30 1 30 54 30 29 0 74 3 100 6 43 6 46 9 46 35 0 26 3 29 35 29 33 0 35
2 35 35 0 32 2 35 30 35 27 0 30 3 30 30 l0 30 530 0 530 0 0 -30z m198 -467
l-3 -168 -725 0 -725 0 -3 168 -2 167 730 0 730 0 -2 -167z m2 -273 c0 -27 3
-30 30 -30 28 0 30 -3 30 -35 0 -33 2 -35 35 -35 32 0 35 -3 35 -29 0 -26 3
-29 46 -35 26 -3 69 -6 95 -6 48 0 49 -1 49 -30 l0 -30 -1050 0 -1050 0 0 30
c0 29 1 30 49 30 26 0 69 3 95 6 43 6 46 9 46 35 0 26 3 29 35 29 33 0 35 2
35 35 0 32 2 35 30 35 27 0 30 3 30 30 l0 30 730 0 730 0 0 -30z m190 -500 l0
-200 -295 0 -295 0 0 135 0 135 -330 0 -330 0 0 -135 0 -135 -295 0 -295 0 0
200 0 200 920 0 920 0 0 -200z m-660 -100 l0 -100 -260 0 -260 0 0 100 0 100
260 0 260 0 0 -100z"/>
</g>
</svg>
